<?xml version="1.0" encoding="UTF-8"?>
<svg id="Layer_1" data-name="Layer 1" xmlns="http://www.w3.org/2000/svg" viewBox="0 0 117.26 59.86">
  <defs>
    <style>
      .cls-1 {
        fill: #fff;
      }

      .cls-1, .cls-2 {
        fill-rule: evenodd;
      }

      .cls-2 {
        fill: #bb2032;
      }
    </style>
  </defs>
  <path class="cls-1" d="M117.21,31.65l-.05-.38-.2-.33c-2.28-3.77-10.77-7.58-15.17-9.35.03-.13.07-.25.09-.39.02-.17.04-.34.04-.51,0-2.07-1.8-4.22-5.61-6.73-9.68-6.36-21.25-7.27-24.25-7.4C66.35,1.78,55.36.71,54.88.66l-7.11-.66,5.85,4.1c1.52,1.07,2.69,2.83,3.41,4.17l-.07.02C41.2.87,33.14,1.7,32.8,1.74l-4.09.49s4.63,4.39,7.24,9.46C15.42,17.21,2.93,23.93,2.93,23.93c0,0,4.44,2.07,4.48,2.09-1.01.44-5.15,2.06-7.42,3.18l18.33,6.12-7.5,4.76,27.11,7.21-7.27,4.32s15.39,4.34,25.86,8.24c2.24-3,9.47-11.34,33.8-3.35,8.33,2.74,11.19-.26,14.13-3.42,2.04-2.19,3.03-4.75,2.28-6.03-.2-.34-.43-.93-.43-.93,5.45-1.59,7.18-5.32,7.65-7.04,2.92-2.3,3.3-5.28,3.3-6.66,0-.44-.04-.72-.05-.77h0Z"/>
  <path class="cls-2" d="M115.34,31.93c-2.68-4.43-16.73-9.52-16.73-9.52,0,0,4.82-1.48-3.35-6.84-10.65-7-23.96-7.11-23.96-7.11-5.09-4.83-16.6-5.9-16.6-5.9,2.52,1.77,4.14,4.98,4.72,6.28-1.64.12-3.26.26-4.85.45-14.4-6.49-21.54-5.65-21.54-5.65,3.57,3.28,5.83,7.44,6.9,9.45C21.23,17.52,7.86,24.15,7.86,24.15l4.42,2.01s-4.49,1.38-7.17,2.84l10.01,2.64,8.27-3.07-7.63-3.09c15.22-7.18,35.19-11.19,45.3-11.19,0,0-1.22.24-3.23.65-11.15,2.63-27.09,9.79-27.09,9.79,3.83,1.07,8.12,3.84,8.12,3.84-6.96,1.74-22.05,10.9-22.05,10.9,6.29-1.34,22.56-2.83,22.56-2.83-6.45,2.06-11.53,5.24-11.99,5.24l34.76.81-8.42,8.14c7.39-4.94,22.81-5.76,22.81-5.76-4.28-1.48-11.4-1.5-11.4-1.5l2.56-4c-10.97-.94-27,.2-27,.2,5.49-3.93,14.24-6.6,17.77-7.83-5.05-.61-16.33-.02-16.33-.02,5.25-3.15,11.19-4.81,16.14-5.62,6.92-1.12,10.5-.77,10.5-.77-3.18-1.36-6.89-1.76-10.29-1.73h-.31s-.13,0-.13,0c-5.64.12-10.43,1.41-10.43,1.41,6.63-4.23,16.32-5.09,20.95-3.96,1.37.45,2.82.96,4.35,1.55,1.27,4.05,3.07,4.18,3.07,4.18-8.28,3.82-9.9,10.31-9.9,10.31,6.31-7.95,15.93-8.18,15.93-8.18l-.67-1.07c2.31-.21,3.35-.95,3.83-1.57.36-.45.39-.91.39-.91,4.75-.32,13.25,2.6,13.25,2.6l-13.59-6.83c-.8,3.35-4.15,2.01-4.15,2.01-5.22-6.04-17-4.96-17-4.96,5.35-2.68,14.29-1.93,14.29-1.93-1.29-2.25-13.21-5.05-13.21-5.05,17.61-3.68,33.18,9.13,33.18,9.13-.54.8-3.35.67-3.35.67,0,0,10.09,5.07,17,9.26-7.51-.4-16.46-1.07-16.46-1.07l7.63,3.35c1.47,3.62,4.42,3.62,4.42,3.62,5.51-.24,6.69-2.68,6.69-2.68-.54,3.89-4.82,4.02-6.82,3.62-2.01-.4-4.42,1.61-9.77.8-4.77-.72-2.94-5.23-14.99-6.98-7.63-1.1-13.25,5.5-13.25,5.5l3.48.8c-2.94,1.34-3.75,4.56-3.75,4.56,0,0,13.42.27,17,2.01,14.32,6.99,17.4,3.35,17.4,3.35-6.16,11-7.81,3.82-25.62.81-8.95-1.51-16.36-.13-23.62,5.09-4.71-.69-14.09-1.97-17.91-1.97,0,0,10.4,2.28,19.56,5.37,8.22-6.96,16.12-10.45,34.99-1.72,6.51,3.01,9.48-.11,12.83-3.86,3.35-3.76.05-5.06.05-5.06v-1.34c7.9-1.21,8.43-6.71,8.43-6.71,3.61-2.41,3.08-6.04,3.08-6.04ZM65.01,8.45c-2.02-2.71-5.79-3.98-5.79-3.98,5.75,1.48,9.94,3.85,9.94,3.85l-4.15.13h0Z"/>
  <path class="cls-1" d="M79.47,22.94s-1.07,2.01.67,2.68c0,0-2.28,1.07-4.15-3.35,0,0,1.21-.54,3.48.67ZM105.17,31.79l-.54,1.21h6.69s.4,1.61-2.01,1.88c0,0,5.71-.42,3.99-3.1l-8.14.02h0ZM78.4,40.65l4.55-2.41s-3.08-2.95-10.57-2.55l3.48,1.48s-2.13,1.33-4.15,3.09c0,0,5.35.13,6.69.4h0ZM37.63,5.7l6.1,8.12,4.62-1.32,4.62-1.09s-4.85-4.31-15.34-5.7h0ZM78.4,32.19l1.21,2.15,3.88-2.01s-1.38-.54-5.09-.14h0ZM86.56,33l.27,3.62,4.55-1.07s-1.15-2.18-4.82-2.55h0ZM94.72,38.23s.34,2.49-1.61,5.23c0,0,4.02-.67,5.62-3.76,0,0-3.08-.54-4.02-1.47h0ZM100.35,39.57l.67,2.28,2.81-2.95s-2.41.94-3.48.67ZM104.5,38.63l-.26,3.33,4.28-3.33s-2.42-.58-4.02,0ZM110.92,38.77s-2.14,4.29-5.89,4.43c0,0,2.89-2.2,3.48-4.56l2.41.13h0ZM102.09,47.08l-.14-2.68-4.28,2.82.13-3.49s-1.99,2.23-4.15,2.42c0,0,4.01,1.88,8.43.94h0ZM90.17,44.67s2.41-.8,2.81-4.02l-5.08,2.68,2.27,1.34ZM85.49,42.26l-1.47-3.22-3.48,1.61s.27.67,4.95,1.61h0Z"/>
</svg>